<?xml version="1.0" standalone="no"?><!DOCTYPE svg PUBLIC "-//W3C//DTD SVG 1.1//EN" "http://www.w3.org/Graphics/SVG/1.1/DTD/svg11.dtd"><svg t="1771919080557" class="icon" viewBox="0 0 1770 1024" version="1.1" xmlns="http://www.w3.org/2000/svg" p-id="10488" data-darkreader-inline-fill="" xmlns:xlink="http://www.w3.org/1999/xlink" width="345.703125" height="200"><path d="M839.327149 0l-136.547253 578.551127a59.608931 59.608931 0 0 1-58.043022 45.881129h-266.204506a31.318177 31.318177 0 0 1-30.535223-39.565297l51.100826-196.469365a45.672342 45.672342 0 0 1 44.15863-34.18901h250.127842l35.128555-154.398614H258.166174a185.977776 185.977776 0 0 0-180.966867 143.176267L2.870833 657.942706a98.286879 98.286879 0 0 0 95.572637 120.888164h700.953003a185.821185 185.821185 0 0 0 180.810276-142.706494L1132.099908 0z" fill="#595F65" p-id="10489" data-darkreader-inline-fill="" style="--darkreader-inline-fill: var(--darkreader-background-595f65, #484d50);"></path><path d="M596.350291 1024h384.274034a315.896014 315.896014 0 0 0 307.231318-242.507085l138.739525-581.996126h-281.863595l-115.668468 492.634927a175.642777 175.642777 0 0 1-170.840656 135.398919h-215.312468m996.022428-51.100826l131.640738-576.93302h-281.863595l-136.547252 576.93302" fill="#595F65" p-id="10490" data-darkreader-inline-fill="" style="--darkreader-inline-fill: var(--darkreader-background-595f65, #484d50);"></path></svg>